<svg width="180" height="60" viewBox="0 0 180 60" fill="none" xmlns="http://www.w3.org/2000/svg">
<mask id="mask0_2061_13123" style="mask-type:luminance" maskUnits="userSpaceOnUse" x="0" y="0" width="60" height="60">
<path d="M60 0H0V60H60V0Z" fill="white"/>
</mask>
<g mask="url(#mask0_2061_13123)">
<path fill-rule="evenodd" clip-rule="evenodd" d="M0 30C0 13.4961 13.4961 0 30 0C46.5039 0 60 13.4961 60 30C60 46.5039 46.5039 60 30 60C13.4961 60 0 46.5039 0 30ZM30 3.91304C15.6561 3.91304 3.91304 15.6561 3.91304 30C3.91304 44.3439 15.6561 56.087 30 56.087C44.3439 56.087 56.087 44.3439 56.087 30C56.087 15.6561 44.3439 3.91304 30 3.91304Z" fill="white"/>
<path fill-rule="evenodd" clip-rule="evenodd" d="M23.2424 21.6299C23.9533 22.4438 23.8711 23.679 23.0572 24.3912C20.8385 26.3308 19.4428 29.1755 19.4428 32.349C19.4428 38.1847 24.1724 42.9142 30.008 42.9142C35.8437 42.9142 40.5733 38.1847 40.5733 32.349C40.5733 29.2042 39.2011 26.3816 37.0176 24.4434C36.2089 23.726 36.1359 22.4895 36.8533 21.6808C37.5707 20.8734 38.8072 20.799 39.6159 21.5164C42.6002 24.1668 44.4863 28.0382 44.4863 32.349C44.4863 40.3447 38.0037 46.8273 30.008 46.8273C22.0124 46.8273 15.5298 40.3447 15.5298 32.349C15.5298 27.999 17.4498 24.0977 20.4824 21.446C21.2963 20.7351 22.5315 20.8173 23.2437 21.6312L23.2424 21.6299Z" fill="white"/>
<path fill-rule="evenodd" clip-rule="evenodd" d="M14.2241 20.3113C14.7184 19.8913 15.428 19.8391 15.9771 20.1822L20.4276 22.963C21.1267 23.4 21.3406 24.3235 20.905 25.0252C20.4693 25.7269 19.5497 25.9408 18.8506 25.5039L18.3445 25.1869L19.6358 28.32C19.9515 29.083 19.5889 29.9595 18.8271 30.2765C18.0667 30.5935 17.1928 30.2295 16.8771 29.4665L13.8093 22.0252C13.5615 21.4239 13.7284 20.7313 14.2228 20.31L14.2241 20.3113Z" fill="white"/>
<path fill-rule="evenodd" clip-rule="evenodd" d="M45.7763 20.3113C45.2819 19.8913 44.5724 19.8391 44.0232 20.1822L39.5728 22.963C38.8737 23.4 38.6597 24.3235 39.0954 25.0252C39.531 25.7269 40.4506 25.9408 41.1497 25.5039L41.6558 25.1869L40.3645 28.32C40.0489 29.083 40.4115 29.9595 41.1732 30.2765C41.9337 30.5935 42.8076 30.2295 43.1219 29.4665L46.191 22.0252C46.4389 21.4239 46.2719 20.7313 45.7776 20.31L45.7763 20.3113Z" fill="white"/>
<path fill-rule="evenodd" clip-rule="evenodd" d="M30 12.5C31.104 12.5 32 13.1811 32 14.0203V25.9797C32 26.8189 31.104 27.5 30 27.5C28.896 27.5 28 26.8189 28 25.9797V14.0203C28 13.1811 28.896 12.5 30 12.5Z" fill="white"/>
</g>
<path d="M75.6279 43V16.468H85.4919C87.8679 16.468 89.6319 17.044 90.7839 18.196C91.9599 19.348 92.5479 21.052 92.5479 23.308C92.5479 24.412 92.3799 25.372 92.0439 26.188C91.7319 26.98 91.2879 27.64 90.7119 28.168C90.1599 28.672 89.5359 29.02 88.8399 29.212C89.3439 29.356 89.8599 29.572 90.3879 29.86C90.9399 30.148 91.4439 30.556 91.8999 31.084C92.3799 31.588 92.7639 32.224 93.0519 32.992C93.3399 33.736 93.4839 34.624 93.4839 35.656C93.4839 37.504 93.1719 38.968 92.5479 40.048C91.9479 41.104 91.0839 41.86 89.9559 42.316C88.8279 42.772 87.4719 43 85.8879 43H75.6279ZM79.2639 39.76H85.7799C86.6439 39.76 87.3879 39.616 88.0119 39.328C88.6359 39.04 89.1279 38.56 89.4879 37.888C89.8479 37.216 90.0279 36.268 90.0279 35.044C90.0279 34.156 89.8359 33.4 89.4519 32.776C89.0679 32.128 88.5519 31.636 87.9039 31.3C87.2799 30.964 86.5719 30.796 85.7799 30.796H79.2639V39.76ZM79.2639 27.988H85.5999C86.6319 27.988 87.4599 27.616 88.0839 26.872C88.7319 26.104 89.0679 25.108 89.0919 23.884C89.1399 22.324 88.8159 21.244 88.1199 20.644C87.4239 20.02 86.5359 19.708 85.4559 19.708H79.2639V27.988ZM101.38 43.216C99.9637 43.216 98.7877 42.796 97.8517 41.956C96.9397 41.092 96.4837 39.904 96.4837 38.392V36.88C96.4837 35.392 96.9877 34.18 97.9957 33.244C99.0277 32.284 100.576 31.804 102.64 31.804H108.652V29.788C108.652 29.044 108.52 28.42 108.256 27.916C108.016 27.388 107.56 26.992 106.888 26.728C106.216 26.464 105.22 26.332 103.9 26.332H97.9957V24.208C98.8597 24.016 99.8677 23.848 101.02 23.704C102.196 23.56 103.564 23.476 105.124 23.452C106.708 23.452 108.028 23.656 109.084 24.064C110.164 24.448 110.968 25.096 111.496 26.008C112.024 26.896 112.288 28.084 112.288 29.572V43H109.444L108.832 40.876C108.688 40.972 108.388 41.152 107.932 41.416C107.476 41.656 106.888 41.92 106.168 42.208C105.472 42.496 104.704 42.736 103.864 42.928C103.048 43.12 102.22 43.216 101.38 43.216ZM103.036 40.588C103.396 40.612 103.816 40.576 104.296 40.48C104.8 40.384 105.292 40.276 105.772 40.156C106.276 40.012 106.732 39.868 107.14 39.724C107.572 39.58 107.92 39.46 108.184 39.364C108.472 39.244 108.628 39.172 108.652 39.148V33.604L103.612 33.82C102.364 33.892 101.464 34.204 100.912 34.756C100.384 35.308 100.12 36.028 100.12 36.916V37.78C100.12 38.476 100.264 39.04 100.552 39.472C100.84 39.88 101.2 40.168 101.632 40.336C102.088 40.504 102.556 40.588 103.036 40.588ZM123.912 43.216C123.408 43.216 122.808 43.204 122.112 43.18C121.416 43.156 120.696 43.108 119.952 43.036C119.232 42.988 118.56 42.928 117.936 42.856C117.336 42.784 116.856 42.7 116.496 42.604V40.444H124.596C125.292 40.444 125.892 40.396 126.396 40.3C126.9 40.18 127.284 39.94 127.548 39.58C127.836 39.22 127.98 38.692 127.98 37.996V37.204C127.98 36.484 127.74 35.92 127.26 35.512C126.78 35.104 125.988 34.9 124.884 34.9H122.076C120.948 34.9 119.94 34.756 119.052 34.468C118.188 34.156 117.504 33.64 117 32.92C116.52 32.2 116.28 31.228 116.28 30.004V28.96C116.28 27.736 116.508 26.728 116.964 25.936C117.444 25.144 118.2 24.556 119.232 24.172C120.264 23.764 121.632 23.56 123.336 23.56C124.056 23.56 124.848 23.596 125.712 23.668C126.6 23.716 127.464 23.788 128.304 23.884C129.144 23.98 129.816 24.088 130.32 24.208V26.368H122.688C121.632 26.368 120.816 26.548 120.24 26.908C119.688 27.268 119.412 27.952 119.412 28.96V29.68C119.412 30.304 119.544 30.784 119.808 31.12C120.072 31.456 120.444 31.672 120.924 31.768C121.428 31.864 122.016 31.912 122.688 31.912H125.568C127.392 31.912 128.772 32.344 129.708 33.208C130.644 34.048 131.112 35.236 131.112 36.772V38.248C131.112 39.544 130.812 40.552 130.212 41.272C129.612 41.992 128.772 42.496 127.692 42.784C126.636 43.072 125.376 43.216 123.912 43.216ZM141.875 43C140.579 43 139.499 42.796 138.635 42.388C137.795 41.956 137.171 41.272 136.763 40.336C136.379 39.4 136.199 38.152 136.223 36.592L136.367 26.692H133.307V24.352L136.439 23.74L136.979 18.34H139.823V23.74H145.043V26.692H139.823V36.556C139.823 37.3 139.895 37.9 140.039 38.356C140.183 38.812 140.387 39.16 140.651 39.4C140.915 39.64 141.203 39.82 141.515 39.94C141.827 40.036 142.127 40.096 142.415 40.12L144.791 40.336V43H141.875ZM156.276 43.216C154.236 43.216 152.604 42.916 151.38 42.316C150.18 41.716 149.316 40.708 148.788 39.292C148.284 37.852 148.032 35.872 148.032 33.352C148.032 30.784 148.284 28.792 148.788 27.376C149.316 25.936 150.18 24.928 151.38 24.352C152.58 23.776 154.2 23.488 156.24 23.488C158.016 23.488 159.444 23.68 160.524 24.064C161.628 24.424 162.432 25.084 162.936 26.044C163.464 26.98 163.728 28.288 163.728 29.968C163.728 31.144 163.488 32.08 163.008 32.776C162.552 33.472 161.892 33.976 161.028 34.288C160.188 34.6 159.18 34.756 158.004 34.756H151.632C151.656 36.148 151.812 37.264 152.1 38.104C152.412 38.92 152.952 39.52 153.72 39.904C154.512 40.264 155.664 40.444 157.176 40.444H163.188V42.604C162.156 42.748 161.1 42.88 160.02 43C158.94 43.144 157.692 43.216 156.276 43.216ZM151.596 32.488H157.68C158.64 32.488 159.348 32.308 159.804 31.948C160.26 31.588 160.488 30.928 160.488 29.968C160.488 29.008 160.344 28.252 160.056 27.7C159.792 27.148 159.348 26.752 158.724 26.512C158.1 26.272 157.272 26.152 156.24 26.152C155.064 26.152 154.128 26.332 153.432 26.692C152.76 27.052 152.28 27.688 151.992 28.6C151.728 29.512 151.596 30.808 151.596 32.488ZM174.782 43C173.486 43 172.406 42.796 171.542 42.388C170.702 41.956 170.078 41.272 169.67 40.336C169.286 39.4 169.106 38.152 169.13 36.592L169.274 26.692H166.214V24.352L169.346 23.74L169.886 18.34H172.73V23.74H177.95V26.692H172.73V36.556C172.73 37.3 172.802 37.9 172.946 38.356C173.09 38.812 173.294 39.16 173.558 39.4C173.822 39.64 174.11 39.82 174.422 39.94C174.734 40.036 175.034 40.096 175.322 40.12L177.698 40.336V43H174.782Z" fill="white"/>
</svg>
