<svg width="159" height="36" viewBox="0 0 159 36" fill="none" xmlns="http://www.w3.org/2000/svg">
<g clip-path="url(#clip0_2006_6363)">
<path d="M0.0458984 0.0456543L15.3468 7.47316L7.47341 15.3465L0.0458984 0.0456543Z" fill="#EEEEEE"/>
<path d="M44.7692 0.0456543L29.4683 7.47316L37.3417 15.3465L44.7692 0.0456543Z" fill="#EEEEEE"/>
<path d="M38.5716 19.9286C38.5716 28.8047 31.3762 36 22.5001 36C13.6241 36 6.42871 28.8047 6.42871 19.9286C6.42871 11.0526 13.6241 3.85718 22.5001 3.85718C31.3762 3.85718 38.5716 11.0526 38.5716 19.9286Z" fill="#4A6FA5"/>
<path d="M37.2858 19.9285C37.2858 28.0945 30.666 34.7143 22.5001 34.7143C14.3342 34.7143 7.71436 28.0945 7.71436 19.9285C7.71436 11.7626 14.3342 5.14282 22.5001 5.14282C30.666 5.14282 37.2858 11.7626 37.2858 19.9285Z" fill="#EEEEEE"/>
<path d="M18.8721 19.7437C18.8721 21.3414 17.577 22.6365 15.9793 22.6365C14.3817 22.6365 13.0864 21.3414 13.0864 19.7437C13.0864 18.1461 14.3817 16.8508 15.9793 16.8508C17.577 16.8508 18.8721 18.1461 18.8721 19.7437Z" fill="#0D0D0D" stroke="#4A6FA5"/>
<path d="M31.7291 19.7437C31.7291 21.3414 30.4339 22.6365 28.8362 22.6365C27.2386 22.6365 25.9434 21.3414 25.9434 19.7437C25.9434 18.1461 27.2386 16.8508 28.8362 16.8508C30.4339 16.8508 31.7291 18.1461 31.7291 19.7437Z" fill="#0D0D0D" stroke="#4A6FA5"/>
</g>
<path d="M55.772 31V4.504H65.348C67.628 4.504 69.332 5.068 70.46 6.196C71.612 7.324 72.188 9.028 72.188 11.308C72.188 12.412 72.02 13.372 71.684 14.188C71.348 15.004 70.892 15.676 70.316 16.204C69.764 16.708 69.14 17.056 68.444 17.248C68.924 17.368 69.428 17.572 69.956 17.86C70.508 18.124 71.024 18.508 71.504 19.012C71.984 19.516 72.368 20.152 72.656 20.92C72.968 21.688 73.124 22.6 73.124 23.656C73.124 25.528 72.824 27.004 72.224 28.084C71.624 29.14 70.772 29.896 69.668 30.352C68.564 30.784 67.244 31 65.708 31H55.772ZM58.652 28.444H65.636C66.596 28.444 67.424 28.3 68.12 28.012C68.84 27.7 69.392 27.172 69.776 26.428C70.184 25.66 70.388 24.58 70.388 23.188C70.388 22.204 70.172 21.364 69.74 20.668C69.332 19.972 68.768 19.444 68.048 19.084C67.328 18.7 66.524 18.508 65.636 18.508H58.652V28.444ZM58.652 16.24H65.528C66.656 16.24 67.58 15.832 68.3 15.016C69.044 14.2 69.428 13.096 69.452 11.704C69.5 10 69.128 8.812 68.336 8.14C67.568 7.444 66.572 7.096 65.348 7.096H58.652V16.24ZM81.1714 31.216C79.7554 31.216 78.5914 30.796 77.6794 29.956C76.7674 29.116 76.3114 27.928 76.3114 26.392V25.024C76.3114 23.512 76.8034 22.288 77.7874 21.352C78.7954 20.416 80.3074 19.948 82.3234 19.948H88.8394V17.572C88.8394 16.78 88.6954 16.108 88.4074 15.556C88.1434 14.98 87.6514 14.536 86.9314 14.224C86.2354 13.912 85.2154 13.756 83.8714 13.756H77.8954V12.064C78.7354 11.92 79.7074 11.788 80.8114 11.668C81.9394 11.548 83.2594 11.488 84.7714 11.488C86.3314 11.464 87.6274 11.656 88.6594 12.064C89.6914 12.472 90.4474 13.12 90.9274 14.008C91.4314 14.872 91.6834 16.012 91.6834 17.428V31H89.4874L88.9474 28.804C88.8514 28.9 88.5514 29.068 88.0474 29.308C87.5674 29.548 86.9434 29.824 86.1754 30.136C85.4314 30.424 84.6154 30.676 83.7274 30.892C82.8634 31.108 82.0114 31.216 81.1714 31.216ZM82.3594 29.092C82.7914 29.116 83.2834 29.068 83.8354 28.948C84.3874 28.828 84.9514 28.696 85.5274 28.552C86.1034 28.384 86.6314 28.216 87.1114 28.048C87.6154 27.88 88.0234 27.736 88.3354 27.616C88.6474 27.496 88.8154 27.436 88.8394 27.436V21.388L82.9714 21.64C81.6034 21.688 80.6194 22.024 80.0194 22.648C79.4434 23.272 79.1554 24.076 79.1554 25.06V25.924C79.1554 26.692 79.3114 27.316 79.6234 27.796C79.9594 28.252 80.3674 28.576 80.8474 28.768C81.3514 28.96 81.8554 29.068 82.3594 29.092ZM103.669 31.216C103.189 31.216 102.601 31.204 101.905 31.18C101.209 31.156 100.477 31.12 99.7086 31.072C98.9646 31.024 98.2806 30.976 97.6566 30.928C97.0566 30.856 96.5886 30.784 96.2526 30.712V28.984H104.137C104.929 28.984 105.613 28.924 106.189 28.804C106.765 28.684 107.209 28.42 107.521 28.012C107.857 27.604 108.025 26.992 108.025 26.176V25.312C108.025 24.472 107.749 23.824 107.197 23.368C106.645 22.888 105.757 22.648 104.533 22.648H101.833C100.705 22.648 99.6966 22.504 98.8086 22.216C97.9446 21.928 97.2726 21.436 96.7926 20.74C96.3126 20.044 96.0726 19.084 96.0726 17.86V16.852C96.0726 15.652 96.3006 14.668 96.7566 13.9C97.2366 13.132 97.9686 12.556 98.9526 12.172C99.9606 11.788 101.257 11.596 102.841 11.596C103.513 11.596 104.281 11.62 105.145 11.668C106.033 11.716 106.897 11.788 107.737 11.884C108.577 11.956 109.261 12.04 109.789 12.136V13.864H102.373C101.149 13.864 100.201 14.068 99.5286 14.476C98.8806 14.884 98.5566 15.676 98.5566 16.852V17.644C98.5566 18.388 98.7126 18.952 99.0246 19.336C99.3366 19.696 99.7686 19.936 100.321 20.056C100.897 20.176 101.557 20.236 102.301 20.236H105.037C106.789 20.236 108.145 20.644 109.105 21.46C110.065 22.276 110.545 23.452 110.545 24.988V26.32C110.545 27.616 110.245 28.624 109.645 29.344C109.069 30.04 108.265 30.532 107.233 30.82C106.225 31.084 105.037 31.216 103.669 31.216ZM121.417 31C120.169 31 119.137 30.796 118.321 30.388C117.505 29.98 116.905 29.32 116.521 28.408C116.137 27.496 115.957 26.284 115.981 24.772L116.089 14.116H113.029V12.28L116.125 11.776L116.593 6.412H118.789V11.776H124.333V14.116H118.789V24.772C118.789 25.612 118.873 26.284 119.041 26.788C119.233 27.292 119.473 27.676 119.761 27.94C120.073 28.204 120.397 28.396 120.733 28.516C121.069 28.612 121.393 28.672 121.705 28.696L124.045 28.912V31H121.417ZM135.607 31.216C133.591 31.216 131.995 30.916 130.819 30.316C129.667 29.716 128.839 28.696 128.335 27.256C127.831 25.816 127.579 23.848 127.579 21.352C127.579 18.808 127.831 16.828 128.335 15.412C128.863 13.972 129.715 12.964 130.891 12.388C132.067 11.812 133.651 11.524 135.643 11.524C137.347 11.524 138.727 11.716 139.783 12.1C140.863 12.484 141.655 13.144 142.159 14.08C142.687 14.992 142.951 16.264 142.951 17.896C142.951 19.024 142.723 19.936 142.267 20.632C141.835 21.304 141.199 21.796 140.359 22.108C139.543 22.396 138.571 22.54 137.443 22.54H130.423C130.447 24.1 130.615 25.36 130.927 26.32C131.239 27.256 131.803 27.94 132.619 28.372C133.459 28.78 134.683 28.984 136.291 28.984H142.483V30.712C141.379 30.856 140.299 30.976 139.243 31.072C138.187 31.168 136.975 31.216 135.607 31.216ZM130.387 20.668H137.227C138.307 20.668 139.099 20.476 139.603 20.092C140.131 19.684 140.395 18.964 140.395 17.932C140.395 16.828 140.227 15.976 139.891 15.376C139.579 14.752 139.075 14.32 138.379 14.08C137.707 13.816 136.795 13.684 135.643 13.684C134.299 13.684 133.243 13.888 132.475 14.296C131.707 14.68 131.167 15.376 130.855 16.384C130.543 17.392 130.387 18.82 130.387 20.668ZM154.112 31C152.864 31 151.832 30.796 151.016 30.388C150.2 29.98 149.6 29.32 149.216 28.408C148.832 27.496 148.652 26.284 148.676 24.772L148.784 14.116H145.724V12.28L148.82 11.776L149.288 6.412H151.484V11.776H157.028V14.116H151.484V24.772C151.484 25.612 151.568 26.284 151.736 26.788C151.928 27.292 152.168 27.676 152.456 27.94C152.768 28.204 153.092 28.396 153.428 28.516C153.764 28.612 154.088 28.672 154.4 28.696L156.74 28.912V31H154.112Z" fill="#EEEEEE"/>
<defs>
<clipPath id="clip0_2006_6363">
<rect width="45" height="36" fill="white"/>
</clipPath>
</defs>
</svg>
