<svg width="512" height="512" viewBox="0 0 512 512" fill="none" xmlns="http://www.w3.org/2000/svg">
    <g clip-path="url(#clip0_2336_9059)">
        <path d="M354.428 87.2501C336.919 65.2541 269.912 94.0341 240.219 108.304C226.761 104.464 209.174 101.518 188.901 99.3071C168.646 96.9141 150.844 95.8402 136.866 96.5632C111.123 75.9802 52.282 32.9261 30.298 50.4241C8.46498 67.8021 24.735 124.168 33.506 149.456C17.302 170.874 9.48097 195.457 7.01997 217.112C4.89197 235.838 4.99897 254.793 7.35897 274.005C11.97 311.502 37.645 342.811 73.586 354.442C80.611 356.713 87.6916 358.808 94.821 360.726C74.91 369.839 62.711 382.089 62.711 395.563C62.711 423.707 115.905 446.523 181.524 446.523C247.143 446.523 300.337 423.708 300.337 395.563C300.337 384.116 291.536 373.551 276.68 365.043C299.518 354.341 317.675 334.899 326.624 310.277C333.234 292.084 337.59 273.635 339.718 254.91C342.178 233.26 340.073 207.555 329.094 183.054C343.283 160.4 371.812 109.09 354.428 87.2501Z" fill="#B1B9C6"/>
        <path d="M207.497 114.957C203.975 145.953 192.104 170.038 181.02 168.779C169.913 167.517 163.747 141.382 167.268 110.386C167.731 106.266 168.365 102.168 169.168 98.101C182.306 98.9886 195.397 100.484 208.397 102.581C208.28 106.584 207.977 110.732 207.497 114.957ZM165.459 99.868C161.94 130.84 150.089 154.952 138.982 153.69C128.302 152.477 122.176 128.102 124.903 98.601C132.121 97.5733 139.407 97.1073 146.697 97.207C153.033 97.302 159.355 97.515 165.658 97.895C165.607 98.562 165.534 99.203 165.459 99.868ZM251.456 112.715C247.529 142.199 236.076 164.721 225.348 163.502C214.241 162.24 208.101 136.084 211.62 105.112C211.696 104.447 211.768 103.806 211.868 103.145C219.037 104.353 226.173 105.749 233.269 107.331C239.448 108.703 245.525 110.502 251.456 112.715Z" fill="#91A2B5"/>
        <path d="M325.871 132.302C325.871 132.302 328.25 139.929 327.847 148.128C327.491 155.708 322.305 160.936 316.099 162.659C305.163 146.948 291.072 133.688 274.726 123.726C275.045 121.63 275.781 119.62 276.89 117.813C278 116.007 279.461 114.441 281.186 113.209C295.902 102.597 315.829 91.6142 328.278 98.4142C349.961 110.277 325.871 132.302 325.871 132.302ZM48.0039 100.732C48.0039 100.732 43.9749 107.631 42.5279 115.712C41.1749 123.179 45.0549 129.437 50.7159 132.508C64.8975 119.65 81.6038 109.889 99.7689 103.848C99.9281 101.734 99.6619 99.6098 98.9858 97.6005C98.3097 95.5912 97.2377 93.7379 95.8329 92.1502C83.8729 78.5082 66.9169 63.3352 53.2599 67.1682C29.4689 73.8652 48.0039 100.732 48.0039 100.732Z" fill="white"/>
        <path d="M358.732 83.8101C349.509 72.2241 330.438 70.6021 300.432 78.8541C278.677 84.8361 255.728 94.8081 239.695 102.449C226.77 98.9521 209.991 96.0621 189.547 93.8321C169.082 91.4141 152.067 90.4661 138.681 90.9751C124.749 79.9221 104.601 65.0461 84.774 54.3521C57.388 39.5801 38.443 36.8821 26.857 46.1051C3.67598 64.5561 16.694 116.961 27.346 148.478C9.22798 173.535 3.38398 200.305 1.54498 216.49C-0.624024 235.583 -0.508024 255.16 1.88998 274.678C4.28198 294.133 12.09 312.373 24.468 327.424C36.869 342.503 53.267 353.659 71.891 359.686C92.48 366.341 113.543 371.5 134.495 375.019C135.936 375.261 137.415 374.92 138.605 374.072C139.795 373.224 140.6 371.938 140.843 370.497C140.963 369.783 140.941 369.053 140.779 368.348C140.616 367.643 140.317 366.976 139.897 366.387C139.477 365.798 138.945 365.297 138.331 364.913C137.718 364.529 137.035 364.27 136.321 364.15C115.898 360.719 95.361 355.688 75.283 349.199C41.673 338.322 17.159 308.542 12.829 273.333C10.536 254.674 10.423 235.967 12.495 217.734C14.788 197.545 23.781 159.538 58.236 131.828C59.3461 130.903 60.0484 129.579 60.1917 128.14C60.335 126.702 59.9077 125.266 59.002 124.14C58.0963 123.013 56.7845 122.288 55.3492 122.12C53.9138 121.951 52.4698 122.353 51.328 123.239C45.672 127.784 40.4038 132.791 35.578 138.209C22.048 95.5261 21.26 64.6451 33.719 54.7281C45.728 45.1691 79.353 59.6161 122.759 92.5711C114.178 94.0531 105.877 96.0471 98.084 98.5401C96.694 98.9872 95.5383 99.9675 94.8706 101.266C94.2028 102.564 94.0776 104.075 94.5224 105.465C94.9673 106.856 95.9458 108.013 97.2431 108.683C98.5405 109.353 100.051 109.481 101.442 109.038C109.13 106.578 117.353 104.615 125.88 103.203C139.459 100.963 160.445 101.493 188.301 104.784C216.136 107.82 236.705 112.012 249.434 117.239C257.433 120.531 265.006 124.289 271.944 128.409C272.566 128.779 273.255 129.022 273.971 129.125C274.688 129.229 275.417 129.19 276.119 129.011C276.82 128.832 277.479 128.517 278.059 128.084C278.638 127.65 279.127 127.106 279.496 126.484C279.866 125.862 280.109 125.173 280.212 124.457C280.315 123.74 280.277 123.011 280.098 122.309C279.919 121.608 279.604 120.949 279.17 120.369C278.737 119.79 278.193 119.301 277.571 118.932C270.537 114.755 262.901 110.938 254.861 107.566C304.532 85.1811 340.536 78.6471 350.107 90.6731C360.007 103.111 352.318 133.029 329.584 171.609C326.097 165.247 322.087 159.187 317.595 153.49C316.679 152.377 315.363 151.667 313.93 151.512C312.497 151.358 311.06 151.77 309.928 152.662C308.795 153.554 308.058 154.855 307.872 156.284C307.687 157.714 308.069 159.159 308.937 160.31C336.297 195.044 336.535 234.099 334.241 254.288C332.169 272.522 327.864 290.726 321.443 308.394C309.325 341.736 278.755 365.257 243.564 368.317C234.364 369.114 225.14 369.621 215.908 369.836C214.462 369.875 213.088 370.48 212.085 371.523C211.081 372.565 210.528 373.96 210.544 375.407C210.56 376.854 211.145 378.236 212.172 379.256C213.199 380.275 214.585 380.85 216.032 380.856L216.161 380.854C225.534 380.638 235.074 380.114 244.516 379.297C264.015 377.601 282.499 370.408 297.967 358.495C313.406 346.604 325.106 330.581 331.802 312.158C338.518 293.677 343.023 274.625 345.192 255.531C347.031 239.346 347.341 211.949 335.307 183.467C342.801 171.276 352.436 154.004 358.762 136.723C367.562 112.694 367.552 94.8911 358.732 83.8101Z" fill="#4A6FA5"/>
        <path d="M269.739 288.781C278.553 283.312 281.264 271.733 275.795 262.92C270.326 254.106 258.747 251.395 249.934 256.864C241.12 262.333 238.409 273.912 243.878 282.725C249.347 291.539 260.926 294.25 269.739 288.781Z" fill="#605C5D"/>
        <path d="M128.738 272.763C137.552 267.294 140.263 255.716 134.794 246.903C129.325 238.089 117.747 235.378 108.933 240.847C100.12 246.316 97.4084 257.894 102.877 266.708C108.347 275.521 119.925 278.232 128.738 272.763Z" fill="#605C5D"/>
        <path d="M303.982 310.75C303.774 310.75 303.564 310.738 303.353 310.714L273.868 307.364C273.149 307.282 272.453 307.06 271.82 306.709C271.187 306.358 270.629 305.887 270.178 305.32C269.728 304.754 269.393 304.104 269.193 303.409C268.994 302.713 268.933 301.985 269.015 301.266C269.096 300.547 269.319 299.851 269.669 299.217C270.02 298.584 270.492 298.026 271.058 297.576C271.624 297.125 272.274 296.79 272.97 296.591C273.666 296.391 274.394 296.331 275.113 296.413L304.598 299.763C306 299.917 307.289 300.603 308.201 301.679C309.112 302.755 309.576 304.14 309.497 305.548C309.418 306.957 308.802 308.281 307.776 309.249C306.75 310.216 305.392 310.754 303.982 310.75ZM295.462 337.84C294.626 337.84 293.778 337.65 292.981 337.247L269.872 325.571C268.595 324.896 267.634 323.747 267.196 322.371C266.757 320.995 266.877 319.502 267.528 318.212C268.179 316.923 269.31 315.941 270.678 315.478C272.046 315.014 273.541 315.106 274.842 315.733L297.951 327.409C299.057 327.968 299.943 328.884 300.464 330.009C300.986 331.134 301.113 332.401 300.825 333.607C300.538 334.813 299.852 335.887 298.879 336.655C297.905 337.423 296.702 337.84 295.462 337.84ZM98.0299 287.351C97.8219 287.351 97.6119 287.339 97.4009 287.315L67.9159 283.965C67.1968 283.883 66.5009 283.661 65.8678 283.31C65.2347 282.959 64.6769 282.488 64.2263 281.921C63.7756 281.355 63.4409 280.705 63.2413 280.01C63.0417 279.314 62.9811 278.586 63.0629 277.867C63.1445 277.148 63.3669 276.452 63.7175 275.819C64.0681 275.185 64.5401 274.628 65.1064 274.177C65.6727 273.726 66.3223 273.392 67.018 273.192C67.7137 272.992 68.4419 272.932 69.1609 273.014L98.6459 276.364C100.048 276.518 101.337 277.204 102.249 278.28C103.16 279.356 103.624 280.741 103.545 282.149C103.466 283.558 102.85 284.882 101.824 285.85C100.798 286.817 99.4403 287.355 98.0299 287.351ZM70.7469 312.309C69.5153 312.308 68.3195 311.894 67.3505 311.134C66.3815 310.374 65.6951 309.311 65.4009 308.115C65.2277 307.412 65.1946 306.682 65.3035 305.967C65.4124 305.252 65.6611 304.565 66.0355 303.945C66.41 303.326 66.9027 302.787 67.4856 302.358C68.0686 301.929 68.7303 301.619 69.4329 301.446L94.5729 295.252C95.992 294.902 97.4918 295.131 98.7425 295.887C99.9932 296.643 100.892 297.865 101.242 299.284C101.592 300.703 101.363 302.203 100.607 303.454C99.851 304.704 98.629 305.603 97.2099 305.953L72.0699 312.147C71.6269 312.257 71.1829 312.309 70.7469 312.309Z" fill="#91A2B5"/>
        <path d="M252.714 235.318C252.506 235.318 252.296 235.306 252.085 235.282L236.617 233.525C235.898 233.444 235.202 233.221 234.569 232.87C233.936 232.52 233.378 232.048 232.927 231.481C232.477 230.915 232.142 230.266 231.942 229.57C231.743 228.874 231.682 228.146 231.764 227.427C231.846 226.708 232.068 226.012 232.419 225.379C232.769 224.746 233.241 224.188 233.807 223.737C234.374 223.286 235.023 222.952 235.719 222.752C236.415 222.553 237.143 222.492 237.862 222.574L253.33 224.331C254.725 224.494 256.006 225.183 256.91 226.258C257.815 227.332 258.275 228.712 258.196 230.115C258.117 231.517 257.506 232.837 256.487 233.804C255.468 234.771 254.119 235.313 252.714 235.318ZM150.896 223.75C150.688 223.75 150.478 223.738 150.267 223.714L134.799 221.957C134.08 221.876 133.384 221.653 132.751 221.302C132.118 220.952 131.56 220.48 131.109 219.913C130.659 219.347 130.324 218.698 130.124 218.002C129.925 217.306 129.864 216.578 129.946 215.859C130.028 215.14 130.25 214.444 130.601 213.811C130.951 213.178 131.423 212.62 131.989 212.169C132.556 211.718 133.205 211.384 133.901 211.184C134.597 210.985 135.325 210.924 136.044 211.006L151.512 212.763C152.907 212.926 154.188 213.615 155.092 214.69C155.997 215.764 156.457 217.144 156.378 218.547C156.299 219.949 155.688 221.269 154.669 222.236C153.65 223.203 152.301 223.745 150.896 223.75Z" fill="white"/>
        <path d="M219.368 320.014C215.069 324.458 209.957 328.231 204.439 330.931C202.189 332.027 199.857 332.946 197.464 333.678C192.83 335.063 188.076 335.684 183.443 335.326C170.64 334.323 158.243 325.796 150.456 314.688C145.87 308.239 142.884 300.953 142.191 293.764C142.024 291.877 142 289.966 142.168 288.103C142.43 284.926 143.194 281.845 144.58 278.906C155.974 254.447 171.381 273.365 188.197 274.678C205.013 275.993 223.214 259.701 230.643 285.666C234.035 297.538 228.708 310.365 219.368 320.014Z" fill="#4A6FA5"/>
        <path d="M197.465 333.678C192.831 335.063 188.077 335.684 183.444 335.326C170.641 334.323 158.244 325.796 150.457 314.688C145.871 308.239 142.885 300.953 142.192 293.764C146.802 292.355 151.555 291.733 156.19 292.116C169.016 293.119 181.39 301.646 189.201 312.73C193.786 319.178 196.772 326.489 197.465 333.678Z" fill="#FD80A6"/>
        <path d="M235.942 284.134C229.318 261.005 213.697 264.657 202.292 267.325C199.672 267.938 197.005 268.553 194.41 268.918L195.168 262.243L197.973 262.561C199.409 262.694 200.839 262.258 201.958 261.349C203.076 260.439 203.794 259.128 203.957 257.695C204.119 256.263 203.715 254.823 202.829 253.686C201.943 252.548 200.647 251.803 199.218 251.61L182.656 249.729C181.937 249.647 181.209 249.708 180.513 249.908C179.818 250.108 179.168 250.442 178.602 250.893C178.036 251.344 177.564 251.901 177.213 252.535C176.863 253.168 176.64 253.864 176.558 254.583C176.477 255.302 176.538 256.03 176.737 256.725C176.937 257.421 177.272 258.07 177.722 258.637C178.173 259.203 178.731 259.675 179.364 260.025C179.997 260.376 180.693 260.598 181.412 260.68L184.217 260.999L183.404 268.15C180.762 267.374 178.077 266.288 175.445 265.217C164.597 260.804 149.735 254.757 139.585 276.57C134.504 287.488 135.839 301.029 143.248 313.72C152.167 328.997 167.777 339.642 183.015 340.838H183.016C184.012 340.916 185.014 340.955 186.023 340.955C200.459 340.955 216.064 333.06 226.526 320.258C235.825 308.879 239.257 295.712 235.942 284.134ZM217.992 313.284C209.152 324.101 195.437 330.748 183.878 329.851C172.312 328.943 159.81 320.227 152.768 308.164C147.206 298.638 146.044 288.817 149.579 281.221C155.303 268.921 160.312 270.959 171.294 275.427C176.156 277.405 181.658 279.634 187.507 280.148C187.534 280.151 187.56 280.158 187.588 280.161C187.611 280.164 187.633 280.163 187.656 280.165C187.697 280.168 187.738 280.176 187.779 280.179C193.728 280.649 199.613 279.271 204.804 278.057C216.346 275.358 221.613 274.126 225.348 287.168C227.652 295.223 224.971 304.742 217.992 313.284Z" fill="#4A6FA5"/>
        <path d="M155.593 425.318H230.663L254.701 328.705C255.691 324.726 257.984 321.193 261.214 318.667C264.444 316.142 268.427 314.77 272.527 314.77H462.779C474.72 314.77 483.486 325.984 480.605 337.572L455.38 439.031C451.668 453.96 438.263 464.442 422.878 464.442H220.929L220.932 464.432H155.593C144.792 464.432 136.037 455.676 136.037 444.875C136.037 434.074 144.792 425.318 155.593 425.318Z" fill="white"/>
        <path d="M481.59 318.432C477.033 312.604 470.176 309.261 462.777 309.261H272.525C272.452 309.261 272.381 309.269 272.309 309.272C272.073 309.274 271.839 309.269 271.602 309.278C261.054 309.672 251.842 317.363 249.2 327.981L226.354 419.807H156.412C142.546 419.807 130.939 430.708 130.537 444.107C130.332 450.952 132.84 457.423 137.602 462.33C142.365 467.238 148.754 469.941 155.592 469.941L422.877 469.951C431.587 469.962 440.049 467.053 446.91 461.689C453.772 456.324 458.636 448.814 460.727 440.359L485.951 338.9C487.737 331.722 486.147 324.261 481.59 318.432ZM475.256 336.242L450.031 437.701C448.531 443.767 445.041 449.154 440.119 453.003C435.196 456.851 429.125 458.938 422.877 458.93H261.294C265.374 454.578 268.27 449.252 269.704 443.462C269.879 442.76 269.913 442.03 269.806 441.314C269.698 440.598 269.451 439.911 269.078 439.291C268.705 438.671 268.213 438.13 267.631 437.7C267.049 437.27 266.388 436.959 265.686 436.784C264.984 436.609 264.254 436.575 263.538 436.682C262.822 436.79 262.135 437.037 261.515 437.41C260.895 437.783 260.354 438.275 259.924 438.857C259.494 439.439 259.183 440.1 259.008 440.802C257.727 445.981 254.747 450.582 250.544 453.868C246.341 457.154 241.157 458.936 235.822 458.929L155.593 458.919C153.712 458.925 151.849 458.551 150.116 457.818C148.384 457.085 146.817 456.009 145.512 454.654C144.197 453.306 143.168 451.707 142.488 449.951C141.808 448.195 141.491 446.32 141.555 444.438C141.78 436.933 148.445 430.829 156.413 430.829H230.663C231.893 430.829 233.088 430.418 234.057 429.66C235.026 428.903 235.714 427.843 236.011 426.649L259.897 330.642C261.361 324.759 266.344 320.503 272.015 320.291C276.105 320.133 279.933 321.865 282.503 325.029C283.768 326.572 284.653 328.39 285.087 330.338C285.521 332.285 285.493 334.307 285.004 336.241L269.583 398.27C269.263 399.677 269.507 401.153 270.263 402.382C271.019 403.611 272.227 404.494 273.627 404.842C275.027 405.19 276.508 404.976 277.752 404.244C278.996 403.513 279.903 402.323 280.279 400.93L295.701 338.901C297.308 332.437 296.191 325.791 292.651 320.282H462.778C466.762 320.282 470.454 322.082 472.908 325.22C474.116 326.756 474.955 328.548 475.362 330.458C475.769 332.369 475.733 334.348 475.256 336.242Z" fill="#E3E3E3"/>
        <path d="M92.46 361.303C52.874 384.097 23.048 440.614 52.551 451.745C80.725 462.375 175.331 481.008 175.331 442.427C175.331 403.846 113.897 394.889 83.877 412.802L92.46 361.303Z" fill="#B1B9C6"/>
        <path d="M131.887 471.238C124.94 471.238 117.282 470.769 108.922 469.83C85.389 467.186 62.197 461.275 50.607 456.902C41.505 453.468 36.045 446.057 35.233 436.036C33.249 411.535 58.705 374.381 89.711 356.528C90.9755 355.832 92.4625 355.66 93.8525 356.049C95.2425 356.437 96.4247 357.356 97.145 358.606C97.8654 359.857 98.0664 361.34 97.705 362.738C97.3436 364.135 96.4485 365.335 95.212 366.079C65.84 382.992 44.758 417.094 46.22 435.146C46.694 441.001 49.325 444.637 54.498 446.589C77.621 455.313 142.722 468.221 163.868 453.598C167.93 450.789 169.822 447.239 169.822 442.427C169.822 431.826 164.425 423.387 153.781 417.344C135.239 406.815 104.52 406.903 86.703 417.535C86.0816 417.906 85.3932 418.151 84.6771 418.256C83.9609 418.361 83.2312 418.324 82.5295 418.146C81.8278 417.969 81.1679 417.655 80.5875 417.223C80.0071 416.79 79.5177 416.248 79.147 415.626C78.7761 415.005 78.5313 414.316 78.4265 413.6C78.3217 412.884 78.359 412.154 78.5363 411.453C78.7136 410.751 79.0274 410.091 79.4597 409.511C79.892 408.93 80.4345 408.441 81.056 408.07C102.22 395.443 137.285 395.303 159.225 407.76C173.167 415.677 180.845 427.988 180.845 442.427C180.845 450.822 177.143 457.82 170.139 462.664C161.882 468.371 149.061 471.237 131.887 471.238Z" fill="#4A6FA5"/>
        <path d="M403.337 283.574C460.307 283.574 506.49 237.391 506.49 180.421C506.49 123.451 460.307 77.2681 403.337 77.2681C346.367 77.2681 300.184 123.451 300.184 180.421C300.184 237.391 346.367 283.574 403.337 283.574Z" fill="#93F6F8"/>
        <path d="M480.341 103.752C459.956 83.2772 432.847 71.9292 403.971 71.7632C403.839 71.7612 403.707 71.7542 403.575 71.7542H403.488C403.44 71.7542 403.393 71.7572 403.345 71.7572H403.33C374.399 71.7572 347.178 82.9962 326.669 103.416C306.101 123.895 294.738 151.158 294.675 180.183C294.612 209.208 305.855 236.521 326.334 257.089C346.813 277.657 374.076 289.02 403.101 289.083H403.345C432.279 289.083 459.496 277.846 480.007 257.424C500.575 236.945 511.938 209.682 512.001 180.657C512.063 151.633 500.82 124.321 480.341 103.752ZM479.695 241.286C474.073 235.693 467.855 230.732 461.153 226.492C464.583 213.926 466.592 200.245 467.031 186.07L500.809 186.144C499.643 206.426 492.302 225.533 479.695 241.286ZM305.841 185.719L339.619 185.793C339.996 199.972 341.947 213.664 345.322 226.246C338.601 230.454 332.361 235.386 326.715 240.954C314.177 225.146 306.918 206.007 305.841 185.719ZM326.976 119.559C332.599 125.151 338.817 130.11 345.519 134.348C342.09 146.915 340.081 160.596 339.642 174.771L305.864 174.697C307.03 154.417 314.371 135.311 326.976 119.559ZM408.912 151.091C423.671 150.365 438.127 146.638 451.398 140.138C454.098 151.04 455.682 162.815 456.026 175.025L408.861 174.922L408.912 151.091ZM408.936 140.05L409.06 83.3391C420.526 85.6381 431.316 94.9962 439.901 110.268C443.166 116.077 445.97 122.491 448.285 129.371C436.063 135.652 422.656 139.29 408.936 140.05ZM398.038 83.3251L397.914 140.031C384.196 139.217 370.804 135.519 358.612 129.178C360.957 122.308 363.79 115.905 367.08 110.11C375.731 94.8742 386.562 85.5741 398.038 83.3251ZM397.89 151.069L397.838 174.898L350.673 174.795C351.07 162.586 352.705 150.818 355.453 139.927C368.694 146.486 383.134 150.278 397.89 151.069ZM350.649 185.817L397.814 185.92L397.762 209.749C383.004 210.484 368.551 214.214 355.28 220.711C352.578 209.807 350.993 198.029 350.649 185.817ZM397.738 220.781L397.614 277.496C386.148 275.197 375.358 265.839 366.774 250.567C363.51 244.759 360.705 238.345 358.39 231.466C370.609 225.178 384.017 221.537 397.738 220.781ZM408.636 277.511L408.76 220.807C422.478 221.621 435.87 225.32 448.061 231.661C445.716 238.53 442.884 244.932 439.594 250.725C430.942 265.961 420.112 275.261 408.636 277.511ZM408.784 209.769L408.836 185.944L456.001 186.047C455.603 198.255 453.968 210.022 451.22 220.912C437.979 214.352 423.54 210.56 408.784 209.769ZM467.055 175.049C466.678 160.872 464.729 147.183 461.355 134.602C468.076 130.394 474.316 125.462 479.963 119.894C492.499 135.701 499.756 154.838 500.832 175.122L467.055 175.049ZM472.64 111.641C468.147 116.123 463.228 120.154 457.951 123.679C455.566 116.96 452.754 110.641 449.508 104.867C446.159 98.9081 442.47 93.6982 438.509 89.2802C451.13 94.1452 462.7 101.655 472.53 111.528L472.64 111.641ZM368.56 89.1301C364.581 93.5301 360.871 98.7242 357.496 104.667C354.225 110.427 351.385 116.732 348.971 123.441C343.711 119.892 338.809 115.839 334.336 111.338L334.444 111.228C344.317 101.398 355.919 93.9401 368.56 89.1301ZM334.039 249.207C338.531 244.724 343.449 240.691 348.725 237.164C351.109 243.881 353.921 250.197 357.165 255.969C360.517 261.932 364.208 267.146 368.172 271.566C355.548 266.701 343.974 259.19 334.142 249.315C334.108 249.278 334.074 249.242 334.039 249.207ZM438.104 271.717C442.087 267.315 445.801 262.117 449.178 256.169C452.448 250.411 455.287 244.107 457.701 237.4C462.961 240.95 467.862 245.005 472.335 249.507L472.23 249.614C462.354 259.447 450.748 266.907 438.104 271.717Z" fill="#65E1E9"/>
    </g>
    <defs>
        <clipPath id="clip0_2336_9059">
            <rect width="512" height="512" fill="white"/>
        </clipPath>
    </defs>
</svg>
