<svg width="30" height="30" viewBox="0 0 30 30" fill="none" xmlns="http://www.w3.org/2000/svg">
<g clip-path="url(#clip0_89_1529)">
<path d="M29.8745 18.3138L24.8201 9.88923L29.3561 8.62923C29.8239 8.49933 30.0977 8.01487 29.9678 7.54718C29.8378 7.07948 29.3533 6.80561 28.8857 6.93558L23.2472 8.50179L23.2459 8.50214L15.8789 10.5485V0.87915C15.8789 0.39376 15.4854 0.000244141 15 0.000244141C14.5146 0.000244141 14.1211 0.39376 14.1211 0.87915V11.0367L6.3022 13.2086L6.30097 13.2089L0.643922 14.7802C0.176168 14.9101 -0.0975818 15.3946 0.032262 15.8623C0.140367 16.2513 0.493629 16.5062 0.87859 16.5062C0.958264 16.5061 1.03756 16.4953 1.11431 16.4739L4.64084 15.4943L0.125602 23.0206C0.04366 23.1572 0.000360593 23.3135 0.00032841 23.4728C0.00032841 27.0718 2.92843 29.9998 6.5275 29.9998C10.1267 29.9998 13.0547 27.0718 13.0547 23.4728C13.0547 23.3135 13.0114 23.1572 12.9295 23.0206L7.87504 14.596L21.5858 10.7876L17.0706 18.3138C16.9886 18.4504 16.9453 18.6067 16.9453 18.7659C16.9453 22.365 19.8734 25.293 23.4725 25.293C25.2159 25.293 26.855 24.6141 28.0879 23.3812C29.3208 22.1483 29.9997 20.5093 29.9996 18.7658C29.9997 18.6066 29.9564 18.4503 29.8745 18.3138ZM6.5275 28.242C4.19798 28.242 2.25408 26.5628 1.84023 24.3516H11.2148C10.801 26.5628 8.85707 28.242 6.5275 28.242ZM10.6237 22.5938H2.43144L6.5275 15.7665L10.6237 22.5938ZM23.4725 11.0597L27.5687 17.887H19.3763L23.4725 11.0597ZM23.4726 23.5352C21.1431 23.5352 19.1991 21.8561 18.7852 19.6449H28.1599C27.746 21.8561 25.8021 23.5352 23.4726 23.5352Z" fill="#EEEEEE"/>
</g>
<defs>
<clipPath id="clip0_89_1529">
<rect width="30" height="30" fill="white"/>
</clipPath>
</defs>
</svg>
