<svg width="30" height="30" viewBox="0 0 30 30" fill="none" xmlns="http://www.w3.org/2000/svg">
    <path d="M29.6807 8.91059C29.1709 6.91097 28.0826 5.18548 26.5335 3.92072C25.0165 2.68214 23.1546 2 21.2913 2C18.8894 2 16.7071 3.06816 14.9976 5.0466C13.2891 3.06834 11.1077 2 8.70648 2C6.84374 2 4.98264 2.68214 3.46593 3.92082C1.91741 5.18557 0.829254 6.91088 0.319442 8.91032C-0.230089 11.0654 -0.340977 14.5021 2.25189 18.6371C4.60953 22.397 8.67803 25.8706 14.3443 28.9617C14.5446 29.071 14.769 29.1282 14.9972 29.1283C15.2253 29.1283 15.4498 29.071 15.6501 28.9618C21.318 25.8706 25.3879 22.3969 27.7466 18.6373C30.3406 14.5023 30.2302 11.0655 29.6807 8.91059Z"
          fill="currentColor"/>
</svg>
