<svg width="10" height="11" viewBox="0 0 10 11" fill="none" xmlns="http://www.w3.org/2000/svg">
<path d="M5.40731 1.80119L6.33648 3.66412C6.40349 3.79964 6.53421 3.89395 6.68585 3.91616L8.76718 4.21935C8.88954 4.23651 8.9999 4.30088 9.07384 4.39823C9.14778 4.49558 9.1792 4.61787 9.16115 4.73804C9.14675 4.83765 9.09979 4.92996 9.02735 5.00105L7.51838 6.46217C7.40786 6.56546 7.35759 6.71645 7.38458 6.86398L7.75625 8.9205C7.7973 9.16653 7.63315 9.40044 7.38458 9.45016C7.28285 9.46614 7.17859 9.44949 7.08725 9.40267L5.22891 8.43468C5.09129 8.36512 4.92797 8.36512 4.79034 8.43468L2.93201 9.40267C2.7031 9.52441 2.41713 9.44108 2.29274 9.21638C2.24561 9.12644 2.22869 9.02413 2.24442 8.92416L2.61609 6.86763C2.64309 6.7201 2.59281 6.56912 2.48229 6.46582L0.973324 5.0047C0.884798 4.91889 0.834961 4.8018 0.834961 4.6796C0.834961 4.5574 0.884798 4.4403 0.973324 4.3545C1.04464 4.28193 1.13907 4.23553 1.24092 4.223L3.32226 3.91982C3.4739 3.8976 3.60462 3.80329 3.67163 3.66777L4.56734 1.80119C4.64568 1.64197 4.81113 1.54212 4.99104 1.54549H5.04679C5.20336 1.56501 5.33913 1.66131 5.40731 1.80119Z" fill="#FBBE27"/>
</svg>
